<svg xmlns="http://www.w3.org/2000/svg" viewBox="0 0 1000 1000"><defs><style>.cls-1{fill:#2b2d31;}.cls-2,.cls-3{fill:#fff;}.cls-3{stroke:#fff;stroke-miterlimit:10;stroke-width:12px;}</style></defs><g id="Layer_3" data-name="Layer 3"><path class="cls-1" d="M500,992.5A492.63,492.63,0,0,1,308.3,46.2,492.63,492.63,0,0,1,691.7,953.8,489.39,489.39,0,0,1,500,992.5Z"/><path class="cls-2" d="M500,15A485.13,485.13,0,0,1,688.78,946.89,485.13,485.13,0,0,1,311.22,53.11,481.88,481.88,0,0,1,500,15m0-15C223.86,0,0,223.86,0,500s223.86,500,500,500,500-223.86,500-500S776.14,0,500,0Z"/></g><g id="Layer_1" data-name="Layer 1"><path class="cls-3" d="M124.53,708.05c1.09-1,1-2.47,1.24-3.76,2.49-15.86,10.56-28.07,24-36.73,1.51-1,2.21-1.87,2.1-3.77-1.47-26.39,4.34-51.44,14.05-75.76,10.86-27.22,26-52,43.46-75.38,22.21-29.7,47.74-56.32,75.52-80.83A722.79,722.79,0,0,1,413.07,342c44.13-24.48,90.16-44.57,138.55-59.1,14.15-4.25,28.44-7.9,42.84-11.16a13.42,13.42,0,0,1,7.06,0A11.08,11.08,0,0,1,609.15,282a10.84,10.84,0,0,1-7.06,10.29,46.4,46.4,0,0,1-5.59,1.47,589.78,589.78,0,0,0-96,30.42,728.22,728.22,0,0,0-128.81,68.62,659.76,659.76,0,0,0-84.31,66.33c-27.43,25.59-52.46,53.29-73.24,84.64-13.49,20.34-25,41.7-32.59,65-5,15.2-8.19,30.7-8,46.79,0,.68.06,1.37,0,2-.15,1.63.53,2.2,2.17,2.12a45.06,45.06,0,0,1,15.82,1.93c21,6.63,33.79,20.75,37.42,42.52,4.69,28.14-15.22,56.47-46.28,59.64a52,52,0,0,1-56.84-44.1c-.2-1.42-.18-2.95-1.28-4.1Zm52.88-26.59a30.36,30.36,0,1,0,30.34,30.37A30.34,30.34,0,0,0,177.41,681.46Z"/><path class="cls-3" d="M506.5,92.76c1.4,1.24,3.23.82,4.84,1.16a52.33,52.33,0,0,1,41.41,44.76,31.14,31.14,0,0,1,.22,5.79c-.15,2.11.67,3.23,2.52,4.21A141.82,141.82,0,0,1,580.73,166c16.08,13.62,29.48,29.59,41.18,47,18,26.79,31.38,55.8,42.17,86.09a578.07,578.07,0,0,1,24.66,95.17c3.27,18.69,5.73,37.48,7.5,56.37a740.62,740.62,0,0,1,3.15,82.39Q699,557.47,697,581.77c-1.25,15.29-2.89,30.53-5.12,45.69A616.74,616.74,0,0,1,674.48,709c-1.35,4.69-2.67,9.39-4.24,14a9.87,9.87,0,0,1-8.19,6.87,10.38,10.38,0,0,1-10.58-4,10,10,0,0,1-1.93-9.3c1.33-4.58,2.7-9.15,4-13.73a589.41,589.41,0,0,0,15.13-68.47q3.69-22.7,5.75-45.61c1.51-16.65,2.36-33.31,2.93-50,.6-17.52.29-35-.51-52.5a696.73,696.73,0,0,0-7.2-73.2c-5.83-38.28-14.76-75.76-28.16-112.12-10-27.16-22.34-53.2-38.67-77.2-11.05-16.25-23.66-31.11-39.07-43.44a128.39,128.39,0,0,0-13.67-9.58c-2.67-1.62-2.68-1.61-4.25,1a51.79,51.79,0,0,1-19.57,19c-30.72,17-69.23-.24-76.41-35a52.16,52.16,0,0,1,41.87-62.07c1.29-.24,2.76.19,3.87-.87Zm24.69,52.51c.57-14.44-11.22-30.32-30.12-30.57a30.37,30.37,0,1,0-.34,60.73C517.67,175.34,531.14,162.14,531.19,145.27Z"/><path class="cls-3" d="M507.87,906.62v.62H494.23v-.6Z"/><path class="cls-3" d="M875.34,711.78c1.36,22.29-15.23,45.94-41.26,51.21a50.72,50.72,0,0,1-38.23-7,4.53,4.53,0,0,0-5.46-.16c-15.15,8.57-31.47,14.08-48.44,17.67-25.07,5.3-50.41,6.43-75.94,5-52.18-2.88-102.24-15.4-151.11-33.23a726.22,726.22,0,0,1-121.57-58.1A726.33,726.33,0,0,1,291.86,614.8a603.13,603.13,0,0,1-52.48-50.64c-3.09-3.36-4.39-7.15-2.87-11.57a10.56,10.56,0,0,1,8.36-7.22,10.23,10.23,0,0,1,8.9,2.37,30.23,30.23,0,0,1,2.87,2.9c31.9,34.59,67.74,64.58,106.44,91.23a730.47,730.47,0,0,0,118.18,66.18,617,617,0,0,0,109.13,37.21,464.08,464.08,0,0,0,58.7,10A334.23,334.23,0,0,0,696.74,757c22.35-.9,44.31-4.11,65.36-12.11a122.9,122.9,0,0,0,13.7-6.06c2.35-1.24,2.38-1.25,1.13-3.74a50.64,50.64,0,0,1-5.48-23.34c.11-12.85,4.2-24.36,12.74-34,11.49-13,26.08-19.07,43.39-18,23.94,1.5,44.33,20.48,47.71,44.19A55.26,55.26,0,0,1,875.34,711.78ZM854,711.67a30.2,30.2,0,0,0-30.44-30.21c-16.78,0-30,13.67-30.18,30.54-.18,16.15,14.35,30.5,30.5,30.23A30.34,30.34,0,0,0,854,711.67Z"/><path class="cls-3" d="M173.16,388.67c1.31,28.79,11,55,24.25,80.22,1.69,3.22,3.59,6.33,5.21,9.58a10.87,10.87,0,0,1-7.52,15.66c-4.58,1-9.19-1.05-11.78-5.53q-6-10.34-11.07-21.13c-7.57-16.08-13.69-32.66-17.37-50.09a151.58,151.58,0,0,1-3.61-35.52c.79-28.15,9.65-53.22,28.92-74.18,12.92-14.06,28.63-24.06,46.17-31.32A202.62,202.62,0,0,1,277,263.21a312.63,312.63,0,0,1,63.26-1.75,452.13,452.13,0,0,1,48.65,6.1c6.85,1.21,10.59,5.93,9.95,12.37a10.59,10.59,0,0,1-9.68,9.4c-3,.22-5.88-.52-8.78-1q-18.64-3.19-37.5-4.67a316.73,316.73,0,0,0-32-1.13c-23.61.61-46.87,3.38-69.26,11.42-15.35,5.51-29.44,13.16-41.32,24.5a85,85,0,0,0-26,51.22A108.07,108.07,0,0,0,173.16,388.67Z"/><path class="cls-3" d="M850.26,385.74c-.12,18.11-3.58,35.66-9.19,52.82-9,27.67-22.93,52.87-39.37,76.76-8.13,11.81-16.91,23.11-26.11,34.1-3.57,4.27-8.12,5.69-12.74,4-7.21-2.67-9.46-11.17-4.54-17.39,3.39-4.28,7-8.41,10.33-12.69,15.29-19.44,28.92-40,39.74-62.24,8.07-16.62,14.41-33.85,17.71-52.1,3.08-17.08,3.39-34.11-1.36-51-5.81-20.67-18-36.75-35.57-48.85-13.45-9.26-28.36-15.23-44.11-19.24A214.62,214.62,0,0,0,702,283.62c-4.2-.19-8.4-.35-12.6-.53a11,11,0,0,1-10.85-10.92,10.9,10.9,0,0,1,11.24-10.86c28.13.37,55.71,4.05,82.13,14.29,16.69,6.47,32,15.36,44.85,27.9,18.07,17.57,28.76,38.93,32.26,63.89A121.18,121.18,0,0,1,850.26,385.74Z"/><path class="cls-3" d="M507.87,906.62l-13.64,0c-8.91-1.07-17.77-2.39-26.35-5.18-17-5.52-32-14.45-45.72-25.8-18.65-15.47-33.6-34.11-46.52-54.47-15.6-24.58-27.58-50.9-37.45-78.22-2.09-5.78,0-11.36,5.1-14A10.86,10.86,0,0,1,357,732.19a15.71,15.71,0,0,1,2.08,4.28q5.81,16.2,12.93,31.88c10.94,24,23.91,46.72,40.83,67,11.72,14.07,24.92,26.47,40.83,35.76,15.41,9,31.91,14.17,49.94,13.58,15.43-.5,29.68-5.09,43-12.67,15.62-8.85,28.69-20.72,40.31-34.28a252.69,252.69,0,0,0,24-33.49c3-4.89,7.58-7,12.29-5.87a10.81,10.81,0,0,1,7,16.1c-3,5.11-6.2,10.06-9.52,15-12.2,17.95-26.2,34.31-43.2,47.95C561.6,890.17,544,899.6,524,904.12,518.68,905.32,513.25,905.77,507.87,906.62Z"/><path class="cls-2" d="M499.77,629.25c-12.15,0-24.32.41-36.46-.1a109.15,109.15,0,0,1-42-10.14c-18.51-8.67-32.18-22.2-40.15-41a118.44,118.44,0,0,1-7.37-68.49c2.28-12.58,8.36-23.49,16.75-33.08a6.3,6.3,0,0,0,1.76-5.29c-1.8-19.59,1.73-38.43,8.35-56.82.83-2.29,2.25-2.05,3.81-1.54,8.66,2.89,17.66,5.08,25.85,9,11.17,5.33,21.7,12,32.53,18,1,.57,2.38,1.24,3.41,1,13.61-2.82,27.39-3.28,41.17-2.63,8.76.41,17.47,1.81,26.21,2.62a6.18,6.18,0,0,0,3.66-1c14.56-9.65,29.75-18.06,46.37-23.63,4.12-1.38,8.37-2.35,12.56-3.5,1.58-.44,2.61-.18,3.27,1.67,6.75,18.85,10.13,38.14,8.32,58.21a4.56,4.56,0,0,0,1.16,3c9.65,11.05,16.39,23.63,18.18,38.24,3.06,25.11.38,49.5-12.08,72-11.87,21.45-30.89,33.54-54.14,39.67a136.89,136.89,0,0,1-33.1,4.22c-9.35.13-18.69,0-28,0Zm.54-10.54c8.53-.31,17.06-.43,25.57-1,11.15-.71,22.18-2.28,32.84-5.87,16-5.38,27.74-15.11,32.65-31.83a67.73,67.73,0,0,0,2.3-25.33c-1.4-15.49-13.27-34.28-34.82-36.63-11.36-1.23-22.65-.4-34,.4a329.5,329.5,0,0,1-42.16.5c-12.48-.7-25-1.53-37.5-1.19-19.81.54-35.34,14.49-38.23,34.07a74.63,74.63,0,0,0,.05,19.75c2,16.18,10,28.71,24.9,35.93a98.87,98.87,0,0,0,19.93,6.94C467.77,618.27,484.05,618.5,500.31,618.71Z"/><path class="cls-2" d="M562.06,565.58c-1.28,5.31-2.19,10.49-3.8,15.43a13.63,13.63,0,0,1-9,8.88c-6.68,2.23-13,.05-16.49-6.39A39.14,39.14,0,0,1,530,551.18c2.41-7,8-10.72,14.81-10.68,6.64,0,12.2,3.8,14.46,10.76C560.75,555.84,561.16,560.77,562.06,565.58Z"/><path class="cls-2" d="M472.22,565.57c-.21,6-1.15,11.9-4.34,17.19-6.34,10.52-18.72,10.76-24.72.08-6.35-11.31-6.36-23.22,0-34.53,6-10.69,18.37-10.45,24.73.06C471.07,553.65,472,559.52,472.22,565.57Z"/></g></svg>