<svg id="Layer_2" data-name="Layer 2" xmlns="http://www.w3.org/2000/svg" viewBox="0 0 512 512"><path d="M512,278.91c-1.33,9.69-2.32,19.45-4.06,29.07-11.49,63.73-43.78,115-93.62,155.67-22.56,18.39-48.11,31.46-75.5,41-11.39,4-19.13-1.54-19.21-13.76-.15-21-.1-42,0-63,.05-19.15-1.66-37.71-16.89-52.37,10.38-1.92,20.22-3.23,29.8-5.63,26.3-6.57,49.84-18.09,65.87-41,12-17.17,17.86-36.9,19.41-57.52a231.27,231.27,0,0,0-.72-42.75c-1.9-17.07-10-32-21.26-44.91-2.25-2.58-2.61-4.71-1.5-8,7.18-20.89,4.27-41.34-3.41-61.43-.46-1.22-2.66-2.32-4.17-2.51-8.69-1.07-17,1.17-24.67,4.8-12.6,6-25,12.44-37.21,19.1-3.43,1.87-6.28,2.65-10.19,1.65a235.44,235.44,0,0,0-117.06-.07A12,12,0,0,1,187,135.48a162.54,162.54,0,0,0-51.16-23c-12.38-3-14.52-1.59-18,10.28-5.32,18.38-6.06,36.65.24,55,.48,1.39-.35,3.84-1.42,5.07-11.55,13.45-19.61,28.74-22,46.28-4.94,36.37-.35,71.16,20.81,102.21,11,16.13,27.13,26.17,45.11,32.49,13.07,4.59,26.95,6.88,40.49,10.12,2.4.58,4.9.77,6.69,1-3.74,6.85-7.63,13.69-11.22,20.69a17.42,17.42,0,0,0-2,7.15c-.2,5.87-3.63,8.36-8.72,9.69-13.66,3.56-27.36,6.1-41.09.55-10.77-4.35-18.6-12.22-24.37-22.07-7.63-13-18-22.8-32.55-27.12-5-1.49-10.75-1.17-16.11-.88-3.55.2-5,2.82-2.41,6,2.3,2.8,4.59,6,7.62,7.75,13.27,7.68,20.81,19.87,26.94,33.16,3.76,8.16,6.9,16.53,13.81,22.85,10.68,9.76,23.68,13.44,37.53,14.11,12.07.59,24.2-.11,37-.25-.43-.8,0-.38,0,.05.21,15.5.72,31,.46,46.49-.17,10.07-8.86,15.43-19,11.58-12.56-4.78-25.22-9.62-37.09-15.86C82.34,460.31,44,416.83,19.46,361,9,337.27,3.34,312.13,1,286.26c-.19-2.13-.68-4.24-1-6.35v-36a35.86,35.86,0,0,0,1-3.8c1.73-11.49,2.7-23.16,5.23-34.48C18.39,151.07,45.89,105.32,88,68.78c40.24-35,87-55.69,140.37-61.21,32.5-3.36,64.58-1.27,96,7.51,51.95,14.55,95.38,42.7,129.64,84.47,29.52,36,48.28,77,55.09,123.21,1,7,2,14.09,3,21.14Z"/></svg>